<?xml version="1.0" encoding="utf-8"?>
<!-- Generator: Adobe Illustrator 24.3.0, SVG Export Plug-In . SVG Version: 6.00 Build 0)  -->
<svg version="1.1" id="Шар_1" xmlns="http://www.w3.org/2000/svg" xmlns:xlink="http://www.w3.org/1999/xlink" x="0px" y="0px"
	 viewBox="0 0 280.81 51.16" style="enable-background:new 0 0 280.81 51.16;" xml:space="preserve">
<style type="text/css">
	.st0{fill:#42AB34;}
	.st1{fill:#055454;}
	.st2{fill:#83BE5B;}
</style>
<g>
	<path class="st0" d="M31.01,41.87"/>
	<polygon class="st1" points="32.32,13.23 12.05,30.51 28.31,30.51 	"/>
	<polygon class="st1" points="5.7,33.98 27.96,33.98 25.52,45.03 	"/>
	<path class="st2" d="M31.17,45.03l8.2-38.32h5.76l-5.16,24.23h9.56l-0.48,2.34h-9.58l-1.68,7.91c-0.14,0.48,0.05,0.85,0.18,1.02
		c0.25,0.34,0.66,0.51,1.21,0.51h6.69l-2.25,2.31H31.17z"/>
	<path class="st2" d="M55.63,45.03c-1.38,0-2.55-0.32-3.48-0.94c-1.19-0.75-1.22-1.49-1.1-2.06l4.16-19.5
		c0.18-0.89,0.94-1.68,2.25-2.35c1.28-0.61,2.63-0.93,3.98-0.93h13.8c0.65,0,1.31,0.08,1.96,0.25c0.63,0.16,1.18,0.39,1.62,0.68
		c0.41,0.27,0.71,0.58,0.92,0.95c0.17,0.3,0.2,0.62,0.09,1.01l-1.65,7.77c-0.11,0.43-0.35,0.84-0.72,1.23
		c-0.41,0.42-0.9,0.79-1.47,1.1c-0.59,0.32-1.25,0.57-1.94,0.74c-0.71,0.18-1.42,0.28-2.11,0.3l-13.21,0l-1.7,7.91
		c-0.15,0.49,0.05,0.87,0.18,1.04c0.17,0.22,0.5,0.49,1.12,0.49h15.8l-0.47,2.31H55.63z M62.46,21.51c-0.79,0-1.38,0.47-1.54,1.23
		l-1.74,8.2h11.74c0.8,0,1.38-0.42,1.56-1.11l1.38-6.74c0.11-0.54-0.06-0.91-0.23-1.11c-0.17-0.21-0.5-0.46-1.1-0.46H62.46z"/>
	<path class="st2" d="M85.32,45.03c-1.4,0-2.58-0.32-3.51-0.94c-1.17-0.75-1.19-1.49-1.08-2.06l2.58-12
		c0.21-0.91,0.93-1.69,2.2-2.36c1.31-0.61,2.69-0.93,4.06-0.93h13.23l0.75-3.67c0.11-0.55-0.06-0.91-0.23-1.11
		c-0.17-0.21-0.5-0.46-1.1-0.46H86.37l0.47-2.25h18.09c0.65,0,1.31,0.08,1.96,0.25c0.63,0.16,1.18,0.39,1.62,0.68
		c0.41,0.27,0.71,0.58,0.92,0.95c0.17,0.3,0.2,0.62,0.09,1.01l-4.85,22.89H85.32z M90.6,29.01c-0.81,0-1.41,0.47-1.56,1.23
		l-2.34,10.95c-0.15,0.49,0.05,0.86,0.18,1.03c0.25,0.33,0.63,0.49,1.15,0.49h11.35l2.94-13.71H90.6z"/>
	<path class="st2" d="M140.35,45.03L145,23.09c0.12-0.55-0.06-0.91-0.23-1.12c-0.17-0.21-0.5-0.47-1.1-0.47h-6.3
		c-0.79,0-1.38,0.47-1.54,1.23l-4.72,22.29h-5.76L130,23.09c0.12-0.55-0.06-0.91-0.23-1.12c-0.17-0.21-0.5-0.47-1.1-0.47h-6.3
		c-0.79,0-1.38,0.47-1.54,1.23l-4.72,22.29h-5.76l4.76-22.5c0.18-0.89,0.94-1.68,2.25-2.35c1.28-0.61,2.63-0.93,3.98-0.93l25.23,0
		c0.61,0,1.21,0.08,1.78,0.22c0.62,0.16,1.15,0.39,1.58,0.69c0.4,0.27,0.7,0.59,0.9,0.97c0.17,0.32,0.21,0.65,0.11,1.03l-4.84,22.87
		H140.35z"/>
	<path class="st2" d="M181.82,45.03l4.65-21.94c0.12-0.55-0.06-0.91-0.23-1.12c-0.17-0.21-0.5-0.47-1.1-0.47h-6.3
		c-0.79,0-1.38,0.47-1.54,1.23l-4.72,22.29h-5.76l4.65-21.94c0.12-0.55-0.06-0.91-0.23-1.12c-0.17-0.21-0.5-0.47-1.1-0.47h-6.3
		c-0.79,0-1.38,0.47-1.54,1.23l-4.72,22.29h-5.76l4.76-22.5c0.18-0.89,0.94-1.68,2.25-2.35c1.28-0.61,2.63-0.93,3.98-0.93l25.23,0
		c0.61,0,1.21,0.08,1.78,0.22c0.62,0.16,1.15,0.39,1.58,0.69c0.4,0.27,0.7,0.59,0.9,0.97c0.17,0.32,0.21,0.65,0.11,1.03l-4.84,22.87
		H181.82z"/>
	<path class="st2" d="M198.25,45.03c-1.4,0-2.58-0.32-3.51-0.94c-1.17-0.75-1.19-1.49-1.08-2.06l2.58-12
		c0.21-0.91,0.93-1.69,2.2-2.36c1.31-0.61,2.68-0.93,4.06-0.93h13.23l0.75-3.67c0.11-0.54-0.06-0.91-0.23-1.11
		c-0.17-0.21-0.5-0.47-1.1-0.47H199.3l0.47-2.25h18.09c0.65,0,1.31,0.08,1.96,0.25c0.63,0.16,1.18,0.39,1.62,0.68
		c0.41,0.27,0.71,0.58,0.92,0.95c0.17,0.3,0.2,0.62,0.09,1.01l-4.85,22.89H198.25z M203.52,29.01c-0.82,0-1.4,0.46-1.56,1.23
		l-2.34,10.95c-0.15,0.49,0.05,0.86,0.18,1.03c0.25,0.33,0.63,0.49,1.15,0.49h11.35l2.94-13.71H203.52z"/>
	<path class="st2" d="M222.82,45.03l8.24-38.32h5.76l-5.16,24.26h9.36l-0.48,2.34h-9.37l-1.68,7.88c-0.14,0.48,0.05,0.85,0.18,1.02
		c0.25,0.33,0.66,0.51,1.21,0.51h6.69l-2.25,2.31H222.82z"/>
	<path class="st2" d="M247.32,45.03c-1.38,0-2.55-0.32-3.48-0.94c-1.19-0.75-1.22-1.49-1.11-2.06l4.16-19.5
		c0.18-0.89,0.94-1.68,2.25-2.35c1.28-0.61,2.63-0.93,3.98-0.93h13.8c0.65,0,1.31,0.08,1.96,0.25c0.63,0.16,1.18,0.39,1.62,0.68
		c0.41,0.27,0.71,0.58,0.92,0.95c0.17,0.3,0.2,0.62,0.09,1.01l-1.65,7.77c-0.11,0.43-0.35,0.84-0.72,1.23
		c-0.41,0.42-0.9,0.79-1.47,1.1c-0.59,0.32-1.25,0.57-1.94,0.74c-0.71,0.18-1.42,0.28-2.11,0.3l-13.21,0l-1.7,7.91
		c-0.15,0.49,0.05,0.87,0.18,1.04c0.17,0.22,0.5,0.49,1.12,0.49h15.8l-0.47,2.31H247.32z M254.15,21.51c-0.79,0-1.38,0.47-1.54,1.23
		l-1.74,8.2h11.74c0.8,0,1.38-0.42,1.56-1.11l1.38-6.74c0.11-0.54-0.06-0.91-0.23-1.11c-0.17-0.21-0.5-0.47-1.1-0.47H254.15z"/>
	<polygon class="st1" points="33.54,6.71 13.09,9.1 6.27,30.46 	"/>
</g>
</svg>
